{
	"asset":{
		"generator":"Khronos glTF Blender I/O v5.1.19",
		"version":"2.0"
	},
	"extensionsUsed":[
		"KHR_materials_emissive_strength"
	],
	"scene":0,
	"scenes":[
		{
			"name":"Scene",
			"nodes":[
				55
			]
		}
	],
	"nodes":[
		{
			"mesh":0,
			"name":"Cube.002_Material.003_0"
		},
		{
			"children":[
				0
			],
			"name":"Cube.002",
			"rotation":[
				-0.4422886371612549,
				0,
				0,
				0.8968727588653564
			],
			"scale":[
				99.99999237060547,
				99.99999237060547,
				100.00000762939453
			],
			"translation":[
				-86.93138122558594,
				634.1578369140625,
				-138.99172973632812
			]
		},
		{
			"mesh":1,
			"name":"Cube.003_Material.001_0"
		},
		{
			"mesh":2,
			"name":"Cube.003_Material.002_0"
		},
		{
			"mesh":3,
			"name":"Cube.003_Material.003_0"
		},
		{
			"mesh":4,
			"name":"Cube.003_Material.006_0"
		},
		{
			"mesh":5,
			"name":"Cube.003_Material.008_0"
		},
		{
			"children":[
				2,
				3,
				4,
				5,
				6
			],
			"name":"Cube.003",
			"rotation":[
				-0.4422886371612549,
				0,
				0,
				0.8968727588653564
			],
			"scale":[
				99.99999237060547,
				99.99999237060547,
				100.00000762939453
			],
			"translation":[
				-86.93138122558594,
				634.1578369140625,
				-138.99172973632812
			]
		},
		{
			"mesh":6,
			"name":"Cylinder_Material.001_0"
		},
		{
			"mesh":7,
			"name":"Cylinder_Material.008_0"
		},
		{
			"mesh":8,
			"name":"Cylinder_Material.010_0"
		},
		{
			"children":[
				8,
				9,
				10
			],
			"name":"Cylinder",
			"rotation":[
				-0.70710688829422,
				0,
				0,
				0.7071066498756409
			],
			"scale":[
				99.99999237060547,
				99.9999771118164,
				99.99998474121094
			],
			"translation":[
				0,
				-1.1973083019256592e-05,
				-5.2887946367263794e-05
			]
		},
		{
			"mesh":9,
			"name":"Cylinder.004_Material.001_0"
		},
		{
			"mesh":10,
			"name":"Cylinder.004_Material.003_0"
		},
		{
			"mesh":11,
			"name":"Cylinder.004_Material.007_0"
		},
		{
			"children":[
				12,
				13,
				14
			],
			"name":"Cylinder.004",
			"rotation":[
				-0.8280604481697083,
				0,
				0,
				0.5606388449668884
			],
			"scale":[
				99.99999237060547,
				99.99998474121094,
				99.99999237060547
			],
			"translation":[
				-83.2942886352539,
				275.393798828125,
				-0.686205267906189
			]
		},
		{
			"mesh":12,
			"name":"Cylinder.005_Material.003_0"
		},
		{
			"children":[
				16
			],
			"name":"Cylinder.005",
			"rotation":[
				-0.70710688829422,
				0,
				0,
				0.7071066498756409
			],
			"scale":[
				99.99999237060547,
				99.9999771118164,
				99.99998474121094
			],
			"translation":[
				0,
				-1.1973083019256592e-05,
				-5.2887946367263794e-05
			]
		},
		{
			"mesh":13,
			"name":"Cylinder.006_Material.001_0"
		},
		{
			"mesh":14,
			"name":"Cylinder.006_Material.002_0"
		},
		{
			"mesh":15,
			"name":"Cylinder.006_Material.003_0"
		},
		{
			"mesh":16,
			"name":"Cylinder.006_Material.008_0"
		},
		{
			"children":[
				18,
				19,
				20,
				21
			],
			"name":"Cylinder.006",
			"rotation":[
				-0.70710688829422,
				0,
				0,
				0.7071066498756409
			],
			"scale":[
				99.99999237060547,
				99.9999771118164,
				99.99998474121094
			],
			"translation":[
				0,
				-1.1973083019256592e-05,
				-5.2887946367263794e-05
			]
		},
		{
			"mesh":17,
			"name":"Cylinder.007_Material.003_0"
		},
		{
			"children":[
				23
			],
			"name":"Cylinder.007",
			"rotation":[
				-0.70710688829422,
				0,
				0,
				0.7071066498756409
			],
			"scale":[
				99.99999237060547,
				99.9999771118164,
				99.99998474121094
			],
			"translation":[
				0,
				-1.1973083019256592e-05,
				-5.2887946367263794e-05
			]
		},
		{
			"mesh":18,
			"name":"Cylinder.013_Material.003_0"
		},
		{
			"children":[
				25
			],
			"name":"Cylinder.013",
			"rotation":[
				-0.70710688829422,
				0,
				0,
				0.7071066498756409
			],
			"scale":[
				99.99999237060547,
				99.9999771118164,
				99.99998474121094
			],
			"translation":[
				0,
				-1.1973083019256592e-05,
				-5.2887946367263794e-05
			]
		},
		{
			"mesh":19,
			"name":"Cylinder.001_Material.001_0"
		},
		{
			"mesh":20,
			"name":"Cylinder.001_Material.002_0"
		},
		{
			"mesh":21,
			"name":"Cylinder.001_Material.003_0"
		},
		{
			"mesh":22,
			"name":"Cylinder.001_Material.008_0"
		},
		{
			"children":[
				27,
				28,
				29,
				30
			],
			"name":"Cylinder.001",
			"rotation":[
				0,
				0.35555270314216614,
				0,
				0.9346562623977661
			],
			"translation":[
				1.0420825481414795,
				0.4826720356941223,
				-2.800462007522583
			]
		},
		{
			"mesh":23,
			"name":"Cylinder.003_Material.006_0"
		},
		{
			"children":[
				32
			],
			"name":"Cylinder.003",
			"rotation":[
				0.004925514571368694,
				0.9370272755622864,
				0.02042807824909687,
				0.3486235439777374
			],
			"translation":[
				0.472095787525177,
				-0.5176388621330261,
				-4.706479072570801
			]
		},
		{
			"mesh":24,
			"name":"Cylinder.008_Material.006_0"
		},
		{
			"children":[
				34
			],
			"name":"Cylinder.008",
			"rotation":[
				0.008066747337579727,
				0.971139132976532,
				-0.004666845314204693,
				0.2383316457271576
			],
			"translation":[
				-0.5585604310035706,
				0.5063581466674805,
				-4.710080623626709
			]
		},
		{
			"mesh":25,
			"name":"Cylinder.011_Material.006_0"
		},
		{
			"children":[
				36
			],
			"name":"Cylinder.011",
			"rotation":[
				0.08107099682092667,
				0.9099685549736023,
				0.24562478065490723,
				0.3241191804409027
			],
			"translation":[
				0.46730566024780273,
				1.7738999128341675,
				-4.707635879516602
			]
		},
		{
			"mesh":26,
			"name":"Cylinder.014_Material.001_0"
		},
		{
			"mesh":27,
			"name":"Cylinder.014_Material.003_0"
		},
		{
			"mesh":28,
			"name":"Cylinder.014_Material.004_0"
		},
		{
			"mesh":29,
			"name":"Cylinder.014_Material.005_0"
		},
		{
			"mesh":30,
			"name":"Cylinder.014_Material.006_0"
		},
		{
			"mesh":31,
			"name":"Cylinder.014_Material.007_0"
		},
		{
			"mesh":32,
			"name":"Cylinder.014_Material.009_0"
		},
		{
			"mesh":33,
			"name":"Cylinder.015_Material.006_0"
		},
		{
			"children":[
				45
			],
			"name":"Cylinder.015",
			"rotation":[
				0,
				0.9380236268043518,
				0,
				0.3465713560581207
			],
			"translation":[
				1.7366141080856323,
				0.5111907124519348,
				-4.711557865142822
			]
		},
		{
			"mesh":34,
			"name":"Cylinder.018_Material.001_0"
		},
		{
			"mesh":35,
			"name":"Cylinder.018_Material.002_0"
		},
		{
			"mesh":36,
			"name":"Cylinder.018_Material.003_0"
		},
		{
			"mesh":37,
			"name":"Cylinder.018_Material.008_0"
		},
		{
			"children":[
				47,
				48,
				49,
				50
			],
			"name":"Cylinder.018",
			"rotation":[
				0,
				0.8248156309127808,
				0,
				0.5654017925262451
			],
			"translation":[
				2.1116440296173096,
				0.48216962814331055,
				-3.7187633514404297
			]
		},
		{
			"children":[
				31,
				33,
				35,
				37,
				38,
				39,
				40,
				41,
				42,
				43,
				44,
				46,
				51
			],
			"name":"Cylinder.014",
			"rotation":[
				-0.37710291147232056,
				-0.15672756731510162,
				-0.3503226339817047,
				0.8429139256477356
			],
			"scale":[
				100.00001525878906,
				100,
				99.99999237060547
			],
			"translation":[
				-86.93212890625,
				862.6378784179688,
				-437.8399658203125
			]
		},
		{
			"children":[
				1,
				7,
				11,
				15,
				17,
				22,
				24,
				26,
				52
			],
			"name":"RootNode",
			"translation":[
				0,
				-1.5516765415668488e-05,
				-5.29363751411438e-05
			]
		},
		{
			"children":[
				53
			],
			"name":"cab9b8f1d47743289b7e7fd93aa24fdb.fbx",
			"rotation":[
				0.70710688829422,
				0,
				0,
				0.7071066498756409
			],
			"scale":[
				0.009999998845160007,
				0.009999998845160007,
				0.009999998845160007
			]
		},
		{
			"children":[
				54
			],
			"name":"Sketchfab_model",
			"rotation":[
				-0.0025994705501943827,
				-0.7088803648948669,
				-0.7052971720695496,
				0.006149940192699432
			],
			"translation":[
				-0.041517846286296844,
				0.4094553589820862,
				0.02328069508075714
			]
		}
	],
	"materials":[
		{
			"doubleSided":true,
			"name":"Material.021",
			"pbrMetallicRoughness":{
				"baseColorFactor":[
					0.13843199610710144,
					0.19120199978351593,
					0.19120199978351593,
					1
				],
				"metallicFactor":0.8271021246910095,
				"roughnessFactor":0.4083162546157837
			}
		},
		{
			"doubleSided":true,
			"name":"Material.022",
			"pbrMetallicRoughness":{
				"baseColorFactor":[
					0.059893898665905,
					0.0641769990324974,
					0.07563979923725128,
					1
				],
				"metallicFactor":0,
				"roughnessFactor":0.9852833151817322
			}
		},
		{
			"doubleSided":true,
			"name":"Material.023",
			"pbrMetallicRoughness":{
				"baseColorFactor":[
					0.019382400438189507,
					0.07036010175943375,
					0.061246100813150406,
					1
				],
				"metallicFactor":0,
				"roughnessFactor":0.9868375658988953
			}
		},
		{
			"doubleSided":true,
			"name":"Material.024",
			"pbrMetallicRoughness":{
				"baseColorFactor":[
					0.05126950144767761,
					0.07227189838886261,
					0.07036010175943375,
					1
				],
				"metallicFactor":0.59039705991745,
				"roughnessFactor":0.3294145464897156
			}
		},
		{
			"doubleSided":true,
			"name":"Material.025",
			"pbrMetallicRoughness":{
				"baseColorFactor":[
					0.10702300071716309,
					0.1412629932165146,
					0.13843199610710144,
					1
				],
				"metallicFactor":0.5600502490997314,
				"roughnessFactor":0.3779694437980652
			}
		},
		{
			"doubleSided":true,
			"name":"Material.026",
			"pbrMetallicRoughness":{
				"baseColorFactor":[
					0.10461699962615967,
					0.14412899315357208,
					0.14412899315357208,
					1
				],
				"metallicFactor":0.8392408490180969,
				"roughnessFactor":0.31120648980140686
			}
		},
		{
			"doubleSided":true,
			"name":"Material.027",
			"pbrMetallicRoughness":{
				"baseColorFactor":[
					0.08650050312280655,
					0.11953800171613693,
					0.11697100102901459,
					1
				],
				"roughnessFactor":0.28692904114723206
			}
		},
		{
			"doubleSided":true,
			"name":"Material.028",
			"pbrMetallicRoughness":{
				"baseColorFactor":[
					0,
					0,
					0,
					1
				],
				"metallicFactor":0
			}
		},
		{
			"doubleSided":true,
			"name":"Material.029",
			"pbrMetallicRoughness":{
				"baseColorFactor":[
					0,
					0,
					0,
					1
				],
				"metallicFactor":0
			}
		},
		{
			"doubleSided":true,
			"emissiveFactor":[
				0.009615739807486534,
				1,
				0.9389001727104187
			],
			"extensions":{
				"KHR_materials_emissive_strength":{
					"emissiveStrength":10
				}
			},
			"name":"Material.030",
			"pbrMetallicRoughness":{
				"baseColorFactor":[
					1,
					0.7711089849472046,
					0.8923419713973999,
					1
				],
				"metallicFactor":0,
				"roughnessFactor":0.8147363662719727
			}
		}
	],
	"meshes":[
		{
			"name":"Cube.002_Material.003_0.002",
			"primitives":[
				{
					"attributes":{
						"POSITION":0,
						"NORMAL":1,
						"TEXCOORD_0":2
					},
					"indices":3,
					"material":0
				}
			]
		},
		{
			"name":"Cube.003_Material.001_0.002",
			"primitives":[
				{
					"attributes":{
						"POSITION":4,
						"NORMAL":5,
						"TEXCOORD_0":6
					},
					"indices":7,
					"material":1
				}
			]
		},
		{
			"name":"Cube.003_Material.002_0.002",
			"primitives":[
				{
					"attributes":{
						"POSITION":8,
						"NORMAL":9,
						"TEXCOORD_0":10
					},
					"indices":11,
					"material":2
				}
			]
		},
		{
			"name":"Cube.003_Material.003_0.002",
			"primitives":[
				{
					"attributes":{
						"POSITION":12,
						"NORMAL":13,
						"TEXCOORD_0":14
					},
					"indices":15,
					"material":0
				}
			]
		},
		{
			"name":"Cube.003_Material.006_0.002",
			"primitives":[
				{
					"attributes":{
						"POSITION":16,
						"NORMAL":17,
						"TEXCOORD_0":18
					},
					"indices":19,
					"material":3
				}
			]
		},
		{
			"name":"Cube.003_Material.008_0.002",
			"primitives":[
				{
					"attributes":{
						"POSITION":20,
						"NORMAL":21,
						"TEXCOORD_0":22
					},
					"indices":23,
					"material":4
				}
			]
		},
		{
			"name":"Cylinder_Material.001_0.002",
			"primitives":[
				{
					"attributes":{
						"POSITION":24,
						"NORMAL":25,
						"TEXCOORD_0":26
					},
					"indices":27,
					"material":1
				}
			]
		},
		{
			"name":"Cylinder_Material.008_0.002",
			"primitives":[
				{
					"attributes":{
						"POSITION":28,
						"NORMAL":29,
						"TEXCOORD_0":30
					},
					"indices":31,
					"material":4
				}
			]
		},
		{
			"name":"Cylinder_Material.010_0.002",
			"primitives":[
				{
					"attributes":{
						"POSITION":32,
						"NORMAL":33,
						"TEXCOORD_0":34
					},
					"indices":35,
					"material":5
				}
			]
		},
		{
			"name":"Cylinder.004_Material.001_0.002",
			"primitives":[
				{
					"attributes":{
						"POSITION":36,
						"NORMAL":37,
						"TEXCOORD_0":38
					},
					"indices":39,
					"material":1
				}
			]
		},
		{
			"name":"Cylinder.004_Material.003_0.002",
			"primitives":[
				{
					"attributes":{
						"POSITION":40,
						"NORMAL":41,
						"TEXCOORD_0":42
					},
					"indices":43,
					"material":0
				}
			]
		},
		{
			"name":"Cylinder.004_Material.007_0.002",
			"primitives":[
				{
					"attributes":{
						"POSITION":44,
						"NORMAL":45,
						"TEXCOORD_0":46
					},
					"indices":47,
					"material":6
				}
			]
		},
		{
			"name":"Cylinder.005_Material.003_0.002",
			"primitives":[
				{
					"attributes":{
						"POSITION":48,
						"NORMAL":49,
						"TEXCOORD_0":50
					},
					"indices":51,
					"material":0
				}
			]
		},
		{
			"name":"Cylinder.006_Material.001_0.002",
			"primitives":[
				{
					"attributes":{
						"POSITION":52,
						"NORMAL":53,
						"TEXCOORD_0":54
					},
					"indices":55,
					"material":1
				}
			]
		},
		{
			"name":"Cylinder.006_Material.002_0.002",
			"primitives":[
				{
					"attributes":{
						"POSITION":56,
						"NORMAL":57,
						"TEXCOORD_0":58
					},
					"indices":59,
					"material":2
				}
			]
		},
		{
			"name":"Cylinder.006_Material.003_0.002",
			"primitives":[
				{
					"attributes":{
						"POSITION":60,
						"NORMAL":61,
						"TEXCOORD_0":62
					},
					"indices":63,
					"material":0
				}
			]
		},
		{
			"name":"Cylinder.006_Material.008_0.002",
			"primitives":[
				{
					"attributes":{
						"POSITION":64,
						"NORMAL":65,
						"TEXCOORD_0":66
					},
					"indices":67,
					"material":4
				}
			]
		},
		{
			"name":"Cylinder.007_Material.003_0.002",
			"primitives":[
				{
					"attributes":{
						"POSITION":68,
						"NORMAL":69,
						"TEXCOORD_0":70
					},
					"indices":71,
					"material":0
				}
			]
		},
		{
			"name":"Cylinder.013_Material.003_0.002",
			"primitives":[
				{
					"attributes":{
						"POSITION":72,
						"NORMAL":73,
						"TEXCOORD_0":74
					},
					"indices":75,
					"material":0
				}
			]
		},
		{
			"name":"Cylinder.001_Material.001_0.002",
			"primitives":[
				{
					"attributes":{
						"POSITION":76,
						"NORMAL":77,
						"TEXCOORD_0":78
					},
					"indices":79,
					"material":1
				}
			]
		},
		{
			"name":"Cylinder.001_Material.002_0.002",
			"primitives":[
				{
					"attributes":{
						"POSITION":80,
						"NORMAL":81,
						"TEXCOORD_0":82
					},
					"indices":83,
					"material":2
				}
			]
		},
		{
			"name":"Cylinder.001_Material.003_0.002",
			"primitives":[
				{
					"attributes":{
						"POSITION":84,
						"NORMAL":85,
						"TEXCOORD_0":86
					},
					"indices":87,
					"material":0
				}
			]
		},
		{
			"name":"Cylinder.001_Material.008_0.002",
			"primitives":[
				{
					"attributes":{
						"POSITION":88,
						"NORMAL":89,
						"TEXCOORD_0":90
					},
					"indices":91,
					"material":4
				}
			]
		},
		{
			"name":"Cylinder.003_Material.006_0.002",
			"primitives":[
				{
					"attributes":{
						"POSITION":92,
						"NORMAL":93,
						"TEXCOORD_0":94
					},
					"indices":95,
					"material":3
				}
			]
		},
		{
			"name":"Cylinder.008_Material.006_0.002",
			"primitives":[
				{
					"attributes":{
						"POSITION":96,
						"NORMAL":97,
						"TEXCOORD_0":98
					},
					"indices":99,
					"material":3
				}
			]
		},
		{
			"name":"Cylinder.011_Material.006_0.002",
			"primitives":[
				{
					"attributes":{
						"POSITION":100,
						"NORMAL":101,
						"TEXCOORD_0":102
					},
					"indices":103,
					"material":3
				}
			]
		},
		{
			"name":"Cylinder.014_Material.001_0.002",
			"primitives":[
				{
					"attributes":{
						"POSITION":104,
						"NORMAL":105,
						"TEXCOORD_0":106
					},
					"indices":107,
					"material":1
				}
			]
		},
		{
			"name":"Cylinder.014_Material.003_0.002",
			"primitives":[
				{
					"attributes":{
						"POSITION":108,
						"NORMAL":109,
						"TEXCOORD_0":110
					},
					"indices":111,
					"material":0
				}
			]
		},
		{
			"name":"Cylinder.014_Material.004_0.002",
			"primitives":[
				{
					"attributes":{
						"POSITION":112,
						"NORMAL":113,
						"TEXCOORD_0":114
					},
					"indices":115,
					"material":7
				}
			]
		},
		{
			"name":"Cylinder.014_Material.005_0.002",
			"primitives":[
				{
					"attributes":{
						"POSITION":116,
						"NORMAL":117,
						"TEXCOORD_0":118
					},
					"indices":119,
					"material":8
				}
			]
		},
		{
			"name":"Cylinder.014_Material.006_0.002",
			"primitives":[
				{
					"attributes":{
						"POSITION":120,
						"NORMAL":121,
						"TEXCOORD_0":122
					},
					"indices":123,
					"material":3
				}
			]
		},
		{
			"name":"Cylinder.014_Material.007_0.002",
			"primitives":[
				{
					"attributes":{
						"POSITION":124,
						"NORMAL":125,
						"TEXCOORD_0":126
					},
					"indices":127,
					"material":6
				}
			]
		},
		{
			"name":"Cylinder.014_Material.009_0.002",
			"primitives":[
				{
					"attributes":{
						"POSITION":128,
						"NORMAL":129,
						"TEXCOORD_0":130
					},
					"indices":131,
					"material":9
				}
			]
		},
		{
			"name":"Cylinder.015_Material.006_0.002",
			"primitives":[
				{
					"attributes":{
						"POSITION":132,
						"NORMAL":133,
						"TEXCOORD_0":134
					},
					"indices":135,
					"material":3
				}
			]
		},
		{
			"name":"Cylinder.018_Material.001_0.002",
			"primitives":[
				{
					"attributes":{
						"POSITION":136,
						"NORMAL":137,
						"TEXCOORD_0":138
					},
					"indices":139,
					"material":1
				}
			]
		},
		{
			"name":"Cylinder.018_Material.002_0.002",
			"primitives":[
				{
					"attributes":{
						"POSITION":140,
						"NORMAL":141,
						"TEXCOORD_0":142
					},
					"indices":143,
					"material":2
				}
			]
		},
		{
			"name":"Cylinder.018_Material.003_0.002",
			"primitives":[
				{
					"attributes":{
						"POSITION":144,
						"NORMAL":145,
						"TEXCOORD_0":146
					},
					"indices":147,
					"material":0
				}
			]
		},
		{
			"name":"Cylinder.018_Material.008_0.002",
			"primitives":[
				{
					"attributes":{
						"POSITION":148,
						"NORMAL":149,
						"TEXCOORD_0":150
					},
					"indices":151,
					"material":4
				}
			]
		}
	],
	"accessors":[
		{
			"bufferView":0,
			"componentType":5126,
			"count":298,
			"max":[
				1.3430858850479126,
				3.0807852745056152,
				0.5694085955619812
			],
			"min":[
				0.39554721117019653,
				0.7359230518341064,
				-0.5881581902503967
			],
			"type":"VEC3"
		},
		{
			"bufferView":1,
			"componentType":5126,
			"count":298,
			"type":"VEC3"
		},
		{
			"bufferView":2,
			"componentType":5126,
			"count":298,
			"type":"VEC2"
		},
		{
			"bufferView":3,
			"componentType":5123,
			"count":480,
			"type":"SCALAR"
		},
		{
			"bufferView":4,
			"componentType":5126,
			"count":955,
			"max":[
				1.7044954299926758,
				4.315569877624512,
				0.49712157249450684
			],
			"min":[
				0.03413212299346924,
				-0.5049448013305664,
				-0.5041401386260986
			],
			"type":"VEC3"
		},
		{
			"bufferView":5,
			"componentType":5126,
			"count":955,
			"type":"VEC3"
		},
		{
			"bufferView":6,
			"componentType":5126,
			"count":955,
			"type":"VEC2"
		},
		{
			"bufferView":7,
			"componentType":5123,
			"count":2784,
			"type":"SCALAR"
		},
		{
			"bufferView":8,
			"componentType":5126,
			"count":70,
			"max":[
				0.964715838432312,
				2.7674171924591064,
				0.5824200510978699
			],
			"min":[
				0.7880278825759888,
				1.0378189086914062,
				-0.6109238266944885
			],
			"type":"VEC3"
		},
		{
			"bufferView":9,
			"componentType":5126,
			"count":70,
			"type":"VEC3"
		},
		{
			"bufferView":10,
			"componentType":5126,
			"count":70,
			"type":"VEC2"
		},
		{
			"bufferView":11,
			"componentType":5123,
			"count":108,
			"type":"SCALAR"
		},
		{
			"bufferView":12,
			"componentType":5126,
			"count":2204,
			"max":[
				1.7038334608078003,
				4.237538814544678,
				0.49196064472198486
			],
			"min":[
				0.03747314214706421,
				-0.358168363571167,
				-0.5029121041297913
			],
			"type":"VEC3"
		},
		{
			"bufferView":13,
			"componentType":5126,
			"count":2204,
			"type":"VEC3"
		},
		{
			"bufferView":14,
			"componentType":5126,
			"count":2204,
			"type":"VEC2"
		},
		{
			"bufferView":15,
			"componentType":5123,
			"count":5964,
			"type":"SCALAR"
		},
		{
			"bufferView":16,
			"componentType":5126,
			"count":60,
			"max":[
				1.5442545413970947,
				4.190953254699707,
				0.3506576716899872
			],
			"min":[
				0.19437295198440552,
				-0.3803286552429199,
				-0.35767629742622375
			],
			"type":"VEC3"
		},
		{
			"bufferView":17,
			"componentType":5126,
			"count":60,
			"type":"VEC3"
		},
		{
			"bufferView":18,
			"componentType":5126,
			"count":60,
			"type":"VEC2"
		},
		{
			"bufferView":19,
			"componentType":5123,
			"count":168,
			"type":"SCALAR"
		},
		{
			"bufferView":20,
			"componentType":5126,
			"count":942,
			"max":[
				1.6671078205108643,
				4.303322792053223,
				0.5824200510978699
			],
			"min":[
				0.062436461448669434,
				-0.49269747734069824,
				-0.6109238266944885
			],
			"type":"VEC3"
		},
		{
			"bufferView":21,
			"componentType":5126,
			"count":942,
			"type":"VEC3"
		},
		{
			"bufferView":22,
			"componentType":5126,
			"count":942,
			"type":"VEC2"
		},
		{
			"bufferView":23,
			"componentType":5123,
			"count":2220,
			"type":"SCALAR"
		},
		{
			"bufferView":24,
			"componentType":5126,
			"count":361,
			"max":[
				1.694179892539978,
				1.694179892539978,
				1.1402965784072876
			],
			"min":[
				-1.694179892539978,
				-1.694179892539978,
				-0.1883433610200882
			],
			"type":"VEC3"
		},
		{
			"bufferView":25,
			"componentType":5126,
			"count":361,
			"type":"VEC3"
		},
		{
			"bufferView":26,
			"componentType":5126,
			"count":361,
			"type":"VEC2"
		},
		{
			"bufferView":27,
			"componentType":5123,
			"count":1020,
			"type":"SCALAR"
		},
		{
			"bufferView":28,
			"componentType":5126,
			"count":156,
			"max":[
				1.1364649534225464,
				1.2110406160354614,
				1.0313223600387573
			],
			"min":[
				-1.207345724105835,
				-1.1311246156692505,
				0.8346090912818909
			],
			"type":"VEC3"
		},
		{
			"bufferView":29,
			"componentType":5126,
			"count":156,
			"type":"VEC3"
		},
		{
			"bufferView":30,
			"componentType":5126,
			"count":156,
			"type":"VEC2"
		},
		{
			"bufferView":31,
			"componentType":5123,
			"count":258,
			"type":"SCALAR"
		},
		{
			"bufferView":32,
			"componentType":5126,
			"count":100,
			"max":[
				1.540668249130249,
				1.5406681299209595,
				0.7136764526367188
			],
			"min":[
				-1.694179892539978,
				-1.694179892539978,
				-0.14166729152202606
			],
			"type":"VEC3"
		},
		{
			"bufferView":33,
			"componentType":5126,
			"count":100,
			"type":"VEC3"
		},
		{
			"bufferView":34,
			"componentType":5126,
			"count":100,
			"type":"VEC2"
		},
		{
			"bufferView":35,
			"componentType":5123,
			"count":264,
			"type":"SCALAR"
		},
		{
			"bufferView":36,
			"componentType":5126,
			"count":1401,
			"max":[
				1.483288049697876,
				0.6126195192337036,
				4.506930351257324
			],
			"min":[
				0.18259775638580322,
				-0.6880708336830139,
				-0.7425100803375244
			],
			"type":"VEC3"
		},
		{
			"bufferView":37,
			"componentType":5126,
			"count":1401,
			"type":"VEC3"
		},
		{
			"bufferView":38,
			"componentType":5126,
			"count":1401,
			"type":"VEC2"
		},
		{
			"bufferView":39,
			"componentType":5123,
			"count":4464,
			"type":"SCALAR"
		},
		{
			"bufferView":40,
			"componentType":5126,
			"count":384,
			"max":[
				1.4081292152404785,
				0.5374606251716614,
				2.8876876831054688
			],
			"min":[
				0.25775665044784546,
				-0.6129119992256165,
				0.8628520965576172
			],
			"type":"VEC3"
		},
		{
			"bufferView":41,
			"componentType":5126,
			"count":384,
			"type":"VEC3"
		},
		{
			"bufferView":42,
			"componentType":5126,
			"count":384,
			"type":"VEC2"
		},
		{
			"bufferView":43,
			"componentType":5123,
			"count":1233,
			"type":"SCALAR"
		},
		{
			"bufferView":44,
			"componentType":5126,
			"count":804,
			"max":[
				1.4081292152404785,
				0.5374605655670166,
				2.720371961593628
			],
			"min":[
				0.25775665044784546,
				-0.6129119396209717,
				1.030167818069458
			],
			"type":"VEC3"
		},
		{
			"bufferView":45,
			"componentType":5126,
			"count":804,
			"type":"VEC3"
		},
		{
			"bufferView":46,
			"componentType":5126,
			"count":804,
			"type":"VEC2"
		},
		{
			"bufferView":47,
			"componentType":5123,
			"count":2220,
			"type":"SCALAR"
		},
		{
			"bufferView":48,
			"componentType":5126,
			"count":576,
			"max":[
				0.8288169503211975,
				0.7146834135055542,
				1.194675087928772
			],
			"min":[
				-0.8288169503211975,
				-0.8288169503211975,
				1.0699923038482666
			],
			"type":"VEC3"
		},
		{
			"bufferView":49,
			"componentType":5126,
			"count":576,
			"type":"VEC3"
		},
		{
			"bufferView":50,
			"componentType":5126,
			"count":576,
			"type":"VEC2"
		},
		{
			"bufferView":51,
			"componentType":5123,
			"count":1230,
			"type":"SCALAR"
		},
		{
			"bufferView":52,
			"componentType":5126,
			"count":778,
			"max":[
				0.8535879850387573,
				0.7885719537734985,
				3.2626259326934814
			],
			"min":[
				-0.8535879850387573,
				-0.7885719537734985,
				0.8672396540641785
			],
			"type":"VEC3"
		},
		{
			"bufferView":53,
			"componentType":5126,
			"count":778,
			"type":"VEC3"
		},
		{
			"bufferView":54,
			"componentType":5126,
			"count":778,
			"type":"VEC2"
		},
		{
			"bufferView":55,
			"componentType":5123,
			"count":2322,
			"type":"SCALAR"
		},
		{
			"bufferView":56,
			"componentType":5126,
			"count":42,
			"max":[
				0.7384639382362366,
				0.5576046109199524,
				1.3818514347076416
			],
			"min":[
				-0.7384639382362366,
				-0.5576046109199524,
				1.2798712253570557
			],
			"type":"VEC3"
		},
		{
			"bufferView":57,
			"componentType":5126,
			"count":42,
			"type":"VEC3"
		},
		{
			"bufferView":58,
			"componentType":5126,
			"count":42,
			"type":"VEC2"
		},
		{
			"bufferView":59,
			"componentType":5123,
			"count":72,
			"type":"SCALAR"
		},
		{
			"bufferView":60,
			"componentType":5126,
			"count":128,
			"max":[
				0.831231951713562,
				0.23596855998039246,
				2.948429584503174
			],
			"min":[
				-0.831231951713562,
				-0.23596851527690887,
				2.4764926433563232
			],
			"type":"VEC3"
		},
		{
			"bufferView":61,
			"componentType":5126,
			"count":128,
			"type":"VEC3"
		},
		{
			"bufferView":62,
			"componentType":5126,
			"count":128,
			"type":"VEC2"
		},
		{
			"bufferView":63,
			"componentType":5123,
			"count":384,
			"type":"SCALAR"
		},
		{
			"bufferView":64,
			"componentType":5126,
			"count":255,
			"max":[
				0.8033832907676697,
				0.7885719537734985,
				2.7834675312042236
			],
			"min":[
				-0.8033832907676697,
				-0.7885719537734985,
				1.1510788202285767
			],
			"type":"VEC3"
		},
		{
			"bufferView":65,
			"componentType":5126,
			"count":255,
			"type":"VEC3"
		},
		{
			"bufferView":66,
			"componentType":5126,
			"count":255,
			"type":"VEC2"
		},
		{
			"bufferView":67,
			"componentType":5123,
			"count":978,
			"type":"SCALAR"
		},
		{
			"bufferView":68,
			"componentType":5126,
			"count":64,
			"max":[
				0.5150225162506104,
				0.3452237546443939,
				3.09474515914917
			],
			"min":[
				-0.6374804973602295,
				-0.34522369503974915,
				2.4042978286743164
			],
			"type":"VEC3"
		},
		{
			"bufferView":69,
			"componentType":5126,
			"count":64,
			"type":"VEC3"
		},
		{
			"bufferView":70,
			"componentType":5126,
			"count":64,
			"type":"VEC2"
		},
		{
			"bufferView":71,
			"componentType":5123,
			"count":180,
			"type":"SCALAR"
		},
		{
			"bufferView":72,
			"componentType":5126,
			"count":151,
			"max":[
				1.7447422742843628,
				1.7447422742843628,
				-0.1873966008424759
			],
			"min":[
				-1.7447422742843628,
				-1.7447422742843628,
				-0.3911912441253662
			],
			"type":"VEC3"
		},
		{
			"bufferView":73,
			"componentType":5126,
			"count":151,
			"type":"VEC3"
		},
		{
			"bufferView":74,
			"componentType":5126,
			"count":151,
			"type":"VEC2"
		},
		{
			"bufferView":75,
			"componentType":5123,
			"count":276,
			"type":"SCALAR"
		},
		{
			"bufferView":76,
			"componentType":5126,
			"count":5714,
			"max":[
				1.2917996644973755,
				1.6656537055969238,
				0.1615290641784668
			],
			"min":[
				-0.9786418676376343,
				-1.373088002204895,
				-1.890435814857483
			],
			"type":"VEC3"
		},
		{
			"bufferView":77,
			"componentType":5126,
			"count":5714,
			"type":"VEC3"
		},
		{
			"bufferView":78,
			"componentType":5126,
			"count":5714,
			"type":"VEC2"
		},
		{
			"bufferView":79,
			"componentType":5123,
			"count":11508,
			"type":"SCALAR"
		},
		{
			"bufferView":80,
			"componentType":5126,
			"count":3456,
			"max":[
				1.4580891132354736,
				1.7047722339630127,
				0.11149263381958008
			],
			"min":[
				-0.9280898571014404,
				-1.4122064113616943,
				-2.049081802368164
			],
			"type":"VEC3"
		},
		{
			"bufferView":81,
			"componentType":5126,
			"count":3456,
			"type":"VEC3"
		},
		{
			"bufferView":82,
			"componentType":5126,
			"count":3456,
			"type":"VEC2"
		},
		{
			"bufferView":83,
			"componentType":5123,
			"count":9216,
			"type":"SCALAR"
		},
		{
			"bufferView":84,
			"componentType":5126,
			"count":2635,
			"max":[
				1.4665772914886475,
				1.7723896503448486,
				0.1981644630432129
			],
			"min":[
				-1.021051287651062,
				-1.4798237085342407,
				-2.0577681064605713
			],
			"type":"VEC3"
		},
		{
			"bufferView":85,
			"componentType":5126,
			"count":2635,
			"type":"VEC3"
		},
		{
			"bufferView":86,
			"componentType":5126,
			"count":2635,
			"type":"VEC2"
		},
		{
			"bufferView":87,
			"componentType":5123,
			"count":5880,
			"type":"SCALAR"
		},
		{
			"bufferView":88,
			"componentType":5126,
			"count":1593,
			"max":[
				1.4348684549331665,
				1.7794535160064697,
				0.19587469100952148
			],
			"min":[
				-1.0198646783828735,
				-1.4868876934051514,
				-2.008800983428955
			],
			"type":"VEC3"
		},
		{
			"bufferView":89,
			"componentType":5126,
			"count":1593,
			"type":"VEC3"
		},
		{
			"bufferView":90,
			"componentType":5126,
			"count":1593,
			"type":"VEC2"
		},
		{
			"bufferView":91,
			"componentType":5123,
			"count":2880,
			"type":"SCALAR"
		},
		{
			"bufferView":92,
			"componentType":5126,
			"count":217,
			"max":[
				0.15920484066009521,
				0.4684680700302124,
				0.3621036410331726
			],
			"min":[
				-0.1591033935546875,
				-0.07335519790649414,
				0.005178213119506836
			],
			"type":"VEC3"
		},
		{
			"bufferView":93,
			"componentType":5126,
			"count":217,
			"type":"VEC3"
		},
		{
			"bufferView":94,
			"componentType":5126,
			"count":217,
			"type":"VEC2"
		},
		{
			"bufferView":95,
			"componentType":5123,
			"count":408,
			"type":"SCALAR"
		},
		{
			"bufferView":96,
			"componentType":5126,
			"count":224,
			"max":[
				0.05864059925079346,
				0.16884255409240723,
				0.5497915148735046
			],
			"min":[
				-0.15492737293243408,
				0.07270181179046631,
				-0.06007063388824463
			],
			"type":"VEC3"
		},
		{
			"bufferView":97,
			"componentType":5126,
			"count":224,
			"type":"VEC3"
		},
		{
			"bufferView":98,
			"componentType":5126,
			"count":224,
			"type":"VEC2"
		},
		{
			"bufferView":99,
			"componentType":5123,
			"count":408,
			"type":"SCALAR"
		},
		{
			"bufferView":100,
			"componentType":5126,
			"count":226,
			"max":[
				0.1575859785079956,
				0.07500636577606201,
				0.3619652986526489
			],
			"min":[
				-0.16072338819503784,
				-0.4668170213699341,
				0.005040943622589111
			],
			"type":"VEC3"
		},
		{
			"bufferView":101,
			"componentType":5126,
			"count":226,
			"type":"VEC3"
		},
		{
			"bufferView":102,
			"componentType":5126,
			"count":226,
			"type":"VEC2"
		},
		{
			"bufferView":103,
			"componentType":5123,
			"count":408,
			"type":"SCALAR"
		},
		{
			"bufferView":104,
			"componentType":5126,
			"count":11134,
			"max":[
				1.2201905250549316,
				1.2579095363616943,
				0.6523747444152832
			],
			"min":[
				-0.03407341241836548,
				0.003644704818725586,
				-3.183461904525757
			],
			"type":"VEC3"
		},
		{
			"bufferView":105,
			"componentType":5126,
			"count":11134,
			"type":"VEC3"
		},
		{
			"bufferView":106,
			"componentType":5126,
			"count":11134,
			"type":"VEC2"
		},
		{
			"bufferView":107,
			"componentType":5123,
			"count":27003,
			"type":"SCALAR"
		},
		{
			"bufferView":108,
			"componentType":5126,
			"count":428,
			"max":[
				1.1172888278961182,
				1.1549808979034424,
				-1.1091156005859375
			],
			"min":[
				0.06888127326965332,
				0.10657328367233276,
				-2.899994373321533
			],
			"type":"VEC3"
		},
		{
			"bufferView":109,
			"componentType":5126,
			"count":428,
			"type":"VEC3"
		},
		{
			"bufferView":110,
			"componentType":5126,
			"count":428,
			"type":"VEC2"
		},
		{
			"bufferView":111,
			"componentType":5123,
			"count":750,
			"type":"SCALAR"
		},
		{
			"bufferView":112,
			"componentType":5126,
			"count":48,
			"max":[
				0.9293997883796692,
				0.9670919179916382,
				-2.307507038116455
			],
			"min":[
				0.2567698359489441,
				0.29446154832839966,
				-2.6776371002197266
			],
			"type":"VEC3"
		},
		{
			"bufferView":113,
			"componentType":5126,
			"count":48,
			"type":"VEC3"
		},
		{
			"bufferView":114,
			"componentType":5126,
			"count":48,
			"type":"VEC2"
		},
		{
			"bufferView":115,
			"componentType":5123,
			"count":138,
			"type":"SCALAR"
		},
		{
			"bufferView":116,
			"componentType":5126,
			"count":32,
			"max":[
				0.6382333040237427,
				0.6759264469146729,
				-1.619648814201355
			],
			"min":[
				0.5479364395141602,
				0.5856295228004456,
				-2.8759028911590576
			],
			"type":"VEC3"
		},
		{
			"bufferView":117,
			"componentType":5126,
			"count":32,
			"type":"VEC3"
		},
		{
			"bufferView":118,
			"componentType":5126,
			"count":32,
			"type":"VEC2"
		},
		{
			"bufferView":119,
			"componentType":5123,
			"count":96,
			"type":"SCALAR"
		},
		{
			"bufferView":120,
			"componentType":5126,
			"count":247,
			"max":[
				1.0167808532714844,
				1.0544729232788086,
				-2.1020877361297607
			],
			"min":[
				0.16938930749893188,
				0.20708119869232178,
				-3.1350231170654297
			],
			"type":"VEC3"
		},
		{
			"bufferView":121,
			"componentType":5126,
			"count":247,
			"type":"VEC3"
		},
		{
			"bufferView":122,
			"componentType":5126,
			"count":247,
			"type":"VEC2"
		},
		{
			"bufferView":123,
			"componentType":5123,
			"count":621,
			"type":"SCALAR"
		},
		{
			"bufferView":124,
			"componentType":5126,
			"count":1644,
			"max":[
				1.226792335510254,
				1.264333724975586,
				-1.125624179840088
			],
			"min":[
				-0.04023200273513794,
				-0.0027796030044555664,
				-2.976980209350586
			],
			"type":"VEC3"
		},
		{
			"bufferView":125,
			"componentType":5126,
			"count":1644,
			"type":"VEC3"
		},
		{
			"bufferView":126,
			"componentType":5126,
			"count":1644,
			"type":"VEC2"
		},
		{
			"bufferView":127,
			"componentType":5123,
			"count":5850,
			"type":"SCALAR"
		},
		{
			"bufferView":128,
			"componentType":5126,
			"count":149,
			"max":[
				1.1233044862747192,
				1.1614134311676025,
				-2.3457624912261963
			],
			"min":[
				0.06161189079284668,
				0.09972083568572998,
				-3.14604115486145
			],
			"type":"VEC3"
		},
		{
			"bufferView":129,
			"componentType":5126,
			"count":149,
			"type":"VEC3"
		},
		{
			"bufferView":130,
			"componentType":5126,
			"count":149,
			"type":"VEC2"
		},
		{
			"bufferView":131,
			"componentType":5123,
			"count":264,
			"type":"SCALAR"
		},
		{
			"bufferView":132,
			"componentType":5126,
			"count":225,
			"max":[
				0.5574839115142822,
				0.16766083240509033,
				0.05148524045944214
			],
			"min":[
				-0.052277326583862305,
				0.07151997834444046,
				-0.06931334733963013
			],
			"type":"VEC3"
		},
		{
			"bufferView":133,
			"componentType":5126,
			"count":225,
			"type":"VEC3"
		},
		{
			"bufferView":134,
			"componentType":5126,
			"count":225,
			"type":"VEC2"
		},
		{
			"bufferView":135,
			"componentType":5123,
			"count":408,
			"type":"SCALAR"
		},
		{
			"bufferView":136,
			"componentType":5126,
			"count":4032,
			"max":[
				1.9095996618270874,
				1.7746608257293701,
				0.14266592264175415
			],
			"min":[
				-0.10493510961532593,
				-1.4810898303985596,
				-2.927586317062378
			],
			"type":"VEC3"
		},
		{
			"bufferView":137,
			"componentType":5126,
			"count":4032,
			"type":"VEC3"
		},
		{
			"bufferView":138,
			"componentType":5126,
			"count":4032,
			"type":"VEC2"
		},
		{
			"bufferView":139,
			"componentType":5123,
			"count":9297,
			"type":"SCALAR"
		},
		{
			"bufferView":140,
			"componentType":5126,
			"count":2978,
			"max":[
				1.9962280988693237,
				1.7323129177093506,
				0.1130862832069397
			],
			"min":[
				0.11572293937206268,
				-1.43874192237854,
				-2.844571590423584
			],
			"type":"VEC3"
		},
		{
			"bufferView":141,
			"componentType":5126,
			"count":2978,
			"type":"VEC3"
		},
		{
			"bufferView":142,
			"componentType":5126,
			"count":2978,
			"type":"VEC2"
		},
		{
			"bufferView":143,
			"componentType":5123,
			"count":5448,
			"type":"SCALAR"
		},
		{
			"bufferView":144,
			"componentType":5126,
			"count":2284,
			"max":[
				1.9249119758605957,
				1.8074660301208496,
				0.18214184045791626
			],
			"min":[
				-0.06288498640060425,
				-1.513895034790039,
				-2.9157073497772217
			],
			"type":"VEC3"
		},
		{
			"bufferView":145,
			"componentType":5126,
			"count":2284,
			"type":"VEC3"
		},
		{
			"bufferView":146,
			"componentType":5126,
			"count":2284,
			"type":"VEC2"
		},
		{
			"bufferView":147,
			"componentType":5123,
			"count":4056,
			"type":"SCALAR"
		},
		{
			"bufferView":148,
			"componentType":5126,
			"count":1333,
			"max":[
				1.9036821126937866,
				1.8086965084075928,
				0.17985206842422485
			],
			"min":[
				-0.13416068255901337,
				-1.5151257514953613,
				-2.9746456146240234
			],
			"type":"VEC3"
		},
		{
			"bufferView":149,
			"componentType":5126,
			"count":1333,
			"type":"VEC3"
		},
		{
			"bufferView":150,
			"componentType":5126,
			"count":1333,
			"type":"VEC2"
		},
		{
			"bufferView":151,
			"componentType":5123,
			"count":2307,
			"type":"SCALAR"
		}
	],
	"bufferViews":[
		{
			"buffer":0,
			"byteLength":3576,
			"byteOffset":0,
			"target":34962
		},
		{
			"buffer":0,
			"byteLength":3576,
			"byteOffset":3576,
			"target":34962
		},
		{
			"buffer":0,
			"byteLength":2384,
			"byteOffset":7152,
			"target":34962
		},
		{
			"buffer":0,
			"byteLength":960,
			"byteOffset":9536,
			"target":34963
		},
		{
			"buffer":0,
			"byteLength":11460,
			"byteOffset":10496,
			"target":34962
		},
		{
			"buffer":0,
			"byteLength":11460,
			"byteOffset":21956,
			"target":34962
		},
		{
			"buffer":0,
			"byteLength":7640,
			"byteOffset":33416,
			"target":34962
		},
		{
			"buffer":0,
			"byteLength":5568,
			"byteOffset":41056,
			"target":34963
		},
		{
			"buffer":0,
			"byteLength":840,
			"byteOffset":46624,
			"target":34962
		},
		{
			"buffer":0,
			"byteLength":840,
			"byteOffset":47464,
			"target":34962
		},
		{
			"buffer":0,
			"byteLength":560,
			"byteOffset":48304,
			"target":34962
		},
		{
			"buffer":0,
			"byteLength":216,
			"byteOffset":48864,
			"target":34963
		},
		{
			"buffer":0,
			"byteLength":26448,
			"byteOffset":49080,
			"target":34962
		},
		{
			"buffer":0,
			"byteLength":26448,
			"byteOffset":75528,
			"target":34962
		},
		{
			"buffer":0,
			"byteLength":17632,
			"byteOffset":101976,
			"target":34962
		},
		{
			"buffer":0,
			"byteLength":11928,
			"byteOffset":119608,
			"target":34963
		},
		{
			"buffer":0,
			"byteLength":720,
			"byteOffset":131536,
			"target":34962
		},
		{
			"buffer":0,
			"byteLength":720,
			"byteOffset":132256,
			"target":34962
		},
		{
			"buffer":0,
			"byteLength":480,
			"byteOffset":132976,
			"target":34962
		},
		{
			"buffer":0,
			"byteLength":336,
			"byteOffset":133456,
			"target":34963
		},
		{
			"buffer":0,
			"byteLength":11304,
			"byteOffset":133792,
			"target":34962
		},
		{
			"buffer":0,
			"byteLength":11304,
			"byteOffset":145096,
			"target":34962
		},
		{
			"buffer":0,
			"byteLength":7536,
			"byteOffset":156400,
			"target":34962
		},
		{
			"buffer":0,
			"byteLength":4440,
			"byteOffset":163936,
			"target":34963
		},
		{
			"buffer":0,
			"byteLength":4332,
			"byteOffset":168376,
			"target":34962
		},
		{
			"buffer":0,
			"byteLength":4332,
			"byteOffset":172708,
			"target":34962
		},
		{
			"buffer":0,
			"byteLength":2888,
			"byteOffset":177040,
			"target":34962
		},
		{
			"buffer":0,
			"byteLength":2040,
			"byteOffset":179928,
			"target":34963
		},
		{
			"buffer":0,
			"byteLength":1872,
			"byteOffset":181968,
			"target":34962
		},
		{
			"buffer":0,
			"byteLength":1872,
			"byteOffset":183840,
			"target":34962
		},
		{
			"buffer":0,
			"byteLength":1248,
			"byteOffset":185712,
			"target":34962
		},
		{
			"buffer":0,
			"byteLength":516,
			"byteOffset":186960,
			"target":34963
		},
		{
			"buffer":0,
			"byteLength":1200,
			"byteOffset":187476,
			"target":34962
		},
		{
			"buffer":0,
			"byteLength":1200,
			"byteOffset":188676,
			"target":34962
		},
		{
			"buffer":0,
			"byteLength":800,
			"byteOffset":189876,
			"target":34962
		},
		{
			"buffer":0,
			"byteLength":528,
			"byteOffset":190676,
			"target":34963
		},
		{
			"buffer":0,
			"byteLength":16812,
			"byteOffset":191204,
			"target":34962
		},
		{
			"buffer":0,
			"byteLength":16812,
			"byteOffset":208016,
			"target":34962
		},
		{
			"buffer":0,
			"byteLength":11208,
			"byteOffset":224828,
			"target":34962
		},
		{
			"buffer":0,
			"byteLength":8928,
			"byteOffset":236036,
			"target":34963
		},
		{
			"buffer":0,
			"byteLength":4608,
			"byteOffset":244964,
			"target":34962
		},
		{
			"buffer":0,
			"byteLength":4608,
			"byteOffset":249572,
			"target":34962
		},
		{
			"buffer":0,
			"byteLength":3072,
			"byteOffset":254180,
			"target":34962
		},
		{
			"buffer":0,
			"byteLength":2466,
			"byteOffset":257252,
			"target":34963
		},
		{
			"buffer":0,
			"byteLength":9648,
			"byteOffset":259720,
			"target":34962
		},
		{
			"buffer":0,
			"byteLength":9648,
			"byteOffset":269368,
			"target":34962
		},
		{
			"buffer":0,
			"byteLength":6432,
			"byteOffset":279016,
			"target":34962
		},
		{
			"buffer":0,
			"byteLength":4440,
			"byteOffset":285448,
			"target":34963
		},
		{
			"buffer":0,
			"byteLength":6912,
			"byteOffset":289888,
			"target":34962
		},
		{
			"buffer":0,
			"byteLength":6912,
			"byteOffset":296800,
			"target":34962
		},
		{
			"buffer":0,
			"byteLength":4608,
			"byteOffset":303712,
			"target":34962
		},
		{
			"buffer":0,
			"byteLength":2460,
			"byteOffset":308320,
			"target":34963
		},
		{
			"buffer":0,
			"byteLength":9336,
			"byteOffset":310780,
			"target":34962
		},
		{
			"buffer":0,
			"byteLength":9336,
			"byteOffset":320116,
			"target":34962
		},
		{
			"buffer":0,
			"byteLength":6224,
			"byteOffset":329452,
			"target":34962
		},
		{
			"buffer":0,
			"byteLength":4644,
			"byteOffset":335676,
			"target":34963
		},
		{
			"buffer":0,
			"byteLength":504,
			"byteOffset":340320,
			"target":34962
		},
		{
			"buffer":0,
			"byteLength":504,
			"byteOffset":340824,
			"target":34962
		},
		{
			"buffer":0,
			"byteLength":336,
			"byteOffset":341328,
			"target":34962
		},
		{
			"buffer":0,
			"byteLength":144,
			"byteOffset":341664,
			"target":34963
		},
		{
			"buffer":0,
			"byteLength":1536,
			"byteOffset":341808,
			"target":34962
		},
		{
			"buffer":0,
			"byteLength":1536,
			"byteOffset":343344,
			"target":34962
		},
		{
			"buffer":0,
			"byteLength":1024,
			"byteOffset":344880,
			"target":34962
		},
		{
			"buffer":0,
			"byteLength":768,
			"byteOffset":345904,
			"target":34963
		},
		{
			"buffer":0,
			"byteLength":3060,
			"byteOffset":346672,
			"target":34962
		},
		{
			"buffer":0,
			"byteLength":3060,
			"byteOffset":349732,
			"target":34962
		},
		{
			"buffer":0,
			"byteLength":2040,
			"byteOffset":352792,
			"target":34962
		},
		{
			"buffer":0,
			"byteLength":1956,
			"byteOffset":354832,
			"target":34963
		},
		{
			"buffer":0,
			"byteLength":768,
			"byteOffset":356788,
			"target":34962
		},
		{
			"buffer":0,
			"byteLength":768,
			"byteOffset":357556,
			"target":34962
		},
		{
			"buffer":0,
			"byteLength":512,
			"byteOffset":358324,
			"target":34962
		},
		{
			"buffer":0,
			"byteLength":360,
			"byteOffset":358836,
			"target":34963
		},
		{
			"buffer":0,
			"byteLength":1812,
			"byteOffset":359196,
			"target":34962
		},
		{
			"buffer":0,
			"byteLength":1812,
			"byteOffset":361008,
			"target":34962
		},
		{
			"buffer":0,
			"byteLength":1208,
			"byteOffset":362820,
			"target":34962
		},
		{
			"buffer":0,
			"byteLength":552,
			"byteOffset":364028,
			"target":34963
		},
		{
			"buffer":0,
			"byteLength":68568,
			"byteOffset":364580,
			"target":34962
		},
		{
			"buffer":0,
			"byteLength":68568,
			"byteOffset":433148,
			"target":34962
		},
		{
			"buffer":0,
			"byteLength":45712,
			"byteOffset":501716,
			"target":34962
		},
		{
			"buffer":0,
			"byteLength":23016,
			"byteOffset":547428,
			"target":34963
		},
		{
			"buffer":0,
			"byteLength":41472,
			"byteOffset":570444,
			"target":34962
		},
		{
			"buffer":0,
			"byteLength":41472,
			"byteOffset":611916,
			"target":34962
		},
		{
			"buffer":0,
			"byteLength":27648,
			"byteOffset":653388,
			"target":34962
		},
		{
			"buffer":0,
			"byteLength":18432,
			"byteOffset":681036,
			"target":34963
		},
		{
			"buffer":0,
			"byteLength":31620,
			"byteOffset":699468,
			"target":34962
		},
		{
			"buffer":0,
			"byteLength":31620,
			"byteOffset":731088,
			"target":34962
		},
		{
			"buffer":0,
			"byteLength":21080,
			"byteOffset":762708,
			"target":34962
		},
		{
			"buffer":0,
			"byteLength":11760,
			"byteOffset":783788,
			"target":34963
		},
		{
			"buffer":0,
			"byteLength":19116,
			"byteOffset":795548,
			"target":34962
		},
		{
			"buffer":0,
			"byteLength":19116,
			"byteOffset":814664,
			"target":34962
		},
		{
			"buffer":0,
			"byteLength":12744,
			"byteOffset":833780,
			"target":34962
		},
		{
			"buffer":0,
			"byteLength":5760,
			"byteOffset":846524,
			"target":34963
		},
		{
			"buffer":0,
			"byteLength":2604,
			"byteOffset":852284,
			"target":34962
		},
		{
			"buffer":0,
			"byteLength":2604,
			"byteOffset":854888,
			"target":34962
		},
		{
			"buffer":0,
			"byteLength":1736,
			"byteOffset":857492,
			"target":34962
		},
		{
			"buffer":0,
			"byteLength":816,
			"byteOffset":859228,
			"target":34963
		},
		{
			"buffer":0,
			"byteLength":2688,
			"byteOffset":860044,
			"target":34962
		},
		{
			"buffer":0,
			"byteLength":2688,
			"byteOffset":862732,
			"target":34962
		},
		{
			"buffer":0,
			"byteLength":1792,
			"byteOffset":865420,
			"target":34962
		},
		{
			"buffer":0,
			"byteLength":816,
			"byteOffset":867212,
			"target":34963
		},
		{
			"buffer":0,
			"byteLength":2712,
			"byteOffset":868028,
			"target":34962
		},
		{
			"buffer":0,
			"byteLength":2712,
			"byteOffset":870740,
			"target":34962
		},
		{
			"buffer":0,
			"byteLength":1808,
			"byteOffset":873452,
			"target":34962
		},
		{
			"buffer":0,
			"byteLength":816,
			"byteOffset":875260,
			"target":34963
		},
		{
			"buffer":0,
			"byteLength":133608,
			"byteOffset":876076,
			"target":34962
		},
		{
			"buffer":0,
			"byteLength":133608,
			"byteOffset":1009684,
			"target":34962
		},
		{
			"buffer":0,
			"byteLength":89072,
			"byteOffset":1143292,
			"target":34962
		},
		{
			"buffer":0,
			"byteLength":54006,
			"byteOffset":1232364,
			"target":34963
		},
		{
			"buffer":0,
			"byteLength":5136,
			"byteOffset":1286372,
			"target":34962
		},
		{
			"buffer":0,
			"byteLength":5136,
			"byteOffset":1291508,
			"target":34962
		},
		{
			"buffer":0,
			"byteLength":3424,
			"byteOffset":1296644,
			"target":34962
		},
		{
			"buffer":0,
			"byteLength":1500,
			"byteOffset":1300068,
			"target":34963
		},
		{
			"buffer":0,
			"byteLength":576,
			"byteOffset":1301568,
			"target":34962
		},
		{
			"buffer":0,
			"byteLength":576,
			"byteOffset":1302144,
			"target":34962
		},
		{
			"buffer":0,
			"byteLength":384,
			"byteOffset":1302720,
			"target":34962
		},
		{
			"buffer":0,
			"byteLength":276,
			"byteOffset":1303104,
			"target":34963
		},
		{
			"buffer":0,
			"byteLength":384,
			"byteOffset":1303380,
			"target":34962
		},
		{
			"buffer":0,
			"byteLength":384,
			"byteOffset":1303764,
			"target":34962
		},
		{
			"buffer":0,
			"byteLength":256,
			"byteOffset":1304148,
			"target":34962
		},
		{
			"buffer":0,
			"byteLength":192,
			"byteOffset":1304404,
			"target":34963
		},
		{
			"buffer":0,
			"byteLength":2964,
			"byteOffset":1304596,
			"target":34962
		},
		{
			"buffer":0,
			"byteLength":2964,
			"byteOffset":1307560,
			"target":34962
		},
		{
			"buffer":0,
			"byteLength":1976,
			"byteOffset":1310524,
			"target":34962
		},
		{
			"buffer":0,
			"byteLength":1242,
			"byteOffset":1312500,
			"target":34963
		},
		{
			"buffer":0,
			"byteLength":19728,
			"byteOffset":1313744,
			"target":34962
		},
		{
			"buffer":0,
			"byteLength":19728,
			"byteOffset":1333472,
			"target":34962
		},
		{
			"buffer":0,
			"byteLength":13152,
			"byteOffset":1353200,
			"target":34962
		},
		{
			"buffer":0,
			"byteLength":11700,
			"byteOffset":1366352,
			"target":34963
		},
		{
			"buffer":0,
			"byteLength":1788,
			"byteOffset":1378052,
			"target":34962
		},
		{
			"buffer":0,
			"byteLength":1788,
			"byteOffset":1379840,
			"target":34962
		},
		{
			"buffer":0,
			"byteLength":1192,
			"byteOffset":1381628,
			"target":34962
		},
		{
			"buffer":0,
			"byteLength":528,
			"byteOffset":1382820,
			"target":34963
		},
		{
			"buffer":0,
			"byteLength":2700,
			"byteOffset":1383348,
			"target":34962
		},
		{
			"buffer":0,
			"byteLength":2700,
			"byteOffset":1386048,
			"target":34962
		},
		{
			"buffer":0,
			"byteLength":1800,
			"byteOffset":1388748,
			"target":34962
		},
		{
			"buffer":0,
			"byteLength":816,
			"byteOffset":1390548,
			"target":34963
		},
		{
			"buffer":0,
			"byteLength":48384,
			"byteOffset":1391364,
			"target":34962
		},
		{
			"buffer":0,
			"byteLength":48384,
			"byteOffset":1439748,
			"target":34962
		},
		{
			"buffer":0,
			"byteLength":32256,
			"byteOffset":1488132,
			"target":34962
		},
		{
			"buffer":0,
			"byteLength":18594,
			"byteOffset":1520388,
			"target":34963
		},
		{
			"buffer":0,
			"byteLength":35736,
			"byteOffset":1538984,
			"target":34962
		},
		{
			"buffer":0,
			"byteLength":35736,
			"byteOffset":1574720,
			"target":34962
		},
		{
			"buffer":0,
			"byteLength":23824,
			"byteOffset":1610456,
			"target":34962
		},
		{
			"buffer":0,
			"byteLength":10896,
			"byteOffset":1634280,
			"target":34963
		},
		{
			"buffer":0,
			"byteLength":27408,
			"byteOffset":1645176,
			"target":34962
		},
		{
			"buffer":0,
			"byteLength":27408,
			"byteOffset":1672584,
			"target":34962
		},
		{
			"buffer":0,
			"byteLength":18272,
			"byteOffset":1699992,
			"target":34962
		},
		{
			"buffer":0,
			"byteLength":8112,
			"byteOffset":1718264,
			"target":34963
		},
		{
			"buffer":0,
			"byteLength":15996,
			"byteOffset":1726376,
			"target":34962
		},
		{
			"buffer":0,
			"byteLength":15996,
			"byteOffset":1742372,
			"target":34962
		},
		{
			"buffer":0,
			"byteLength":10664,
			"byteOffset":1758368,
			"target":34962
		},
		{
			"buffer":0,
			"byteLength":4614,
			"byteOffset":1769032,
			"target":34963
		}
	],
	"buffers":[
		{
			"byteLength":1773648,
			"uri":"scene.bin"
		}
	]
}
